{
  "accessors": [
    {
      "bufferView": 2,
      "componentType": 5126,
      "count": 5329,
      "max": [
        152.95372009277344,
        -208.50048828125,
        58.153743743896484
      ],
      "min": [
        13.772250175476074,
        -331.90789794921875,
        -41.22727966308594
      ],
      "type": "VEC3"
    },
    {
      "bufferView": 2,
      "byteOffset": 63948,
      "componentType": 5126,
      "count": 5329,
      "max": [
        0.9817335605621338,
        0.9636945724487305,
        0.9669687151908875
      ],
      "min": [
        -0.9817336201667786,
        -0.9636945724487305,
        -0.9669685959815979
      ],
      "type": "VEC3"
    },
    {
      "bufferView": 1,
      "componentType": 5126,
      "count": 5329,
      "max": [
        0.7871090173721313,
        0.5
      ],
      "min": [
        0.09570299834012985,
        0.5
      ],
      "type": "VEC2"
    },
    {
      "bufferView": 0,
      "componentType": 5125,
      "count": 9516,
      "type": "SCALAR"
    },
    {
      "bufferView": 2,
      "byteOffset": 127896,
      "componentType": 5126,
      "count": 59982,
      "max": [
        64.24214935302734,
        -112.3828353881836,
        126.64352416992188
      ],
      "min": [
        -3.999999989900971e-06,
        -239.4447021484375,
        23.148399353027344
      ],
      "type": "VEC3"
    },
    {
      "bufferView": 2,
      "byteOffset": 847680,
      "componentType": 5126,
      "count": 59982,
      "max": [
        0.9999628663063049,
        0.998404860496521,
        0.9984040260314941
      ],
      "min": [
        -0.9999628663063049,
        -0.998405933380127,
        -0.9984039664268494
      ],
      "type": "VEC3"
    },
    {
      "bufferView": 1,
      "byteOffset": 42632,
      "componentType": 5126,
      "count": 59982,
      "max": [
        0.7871090173721313,
        0.5
      ],
      "min": [
        0.09570299834012985,
        0.5
      ],
      "type": "VEC2"
    },
    {
      "bufferView": 0,
      "byteOffset": 38064,
      "componentType": 5125,
      "count": 106236,
      "type": "SCALAR"
    },
    {
      "bufferView": 2,
      "byteOffset": 1567464,
      "componentType": 5126,
      "count": 65532,
      "max": [
        0.0,
        7.127871036529541,
        293.1980285644531
      ],
      "min": [
        -418.42730712890625,
        -415.2681884765625,
        -129.197998046875
      ],
      "type": "VEC3"
    },
    {
      "bufferView": 2,
      "byteOffset": 2353848,
      "componentType": 5126,
      "count": 65532,
      "max": [
        1.0,
        0.9617169499397278,
        0.9617172479629517
      ],
      "min": [
        -1.2654521015065257e-05,
        -0.9617170095443726,
        -0.2740601897239685
      ],
      "type": "VEC3"
    },
    {
      "bufferView": 1,
      "byteOffset": 522488,
      "componentType": 5126,
      "count": 65532,
      "max": [
        0.25976601243019104,
        0.5
      ],
      "min": [
        0.25195300579071045,
        0.5
      ],
      "type": "VEC2"
    },
    {
      "bufferView": 0,
      "byteOffset": 463008,
      "componentType": 5125,
      "count": 128973,
      "type": "SCALAR"
    },
    {
      "bufferView": 2,
      "byteOffset": 3140232,
      "componentType": 5126,
      "count": 65532,
      "max": [
        0.0,
        7.127871036529541,
        293.1980285644531
      ],
      "min": [
        -418.42730712890625,
        -415.2681884765625,
        -129.197998046875
      ],
      "type": "VEC3"
    },
    {
      "bufferView": 2,
      "byteOffset": 3926616,
      "componentType": 5126,
      "count": 65532,
      "max": [
        1.0,
        0.0,
        0.0
      ],
      "min": [
        -1.0,
        -0.27405625581741333,
        -0.961716890335083
      ],
      "type": "VEC3"
    },
    {
      "bufferView": 1,
      "byteOffset": 1046744,
      "componentType": 5126,
      "count": 65532,
      "max": [
        0.25976601243019104,
        0.5
      ],
      "min": [
        0.25195300579071045,
        0.5
      ],
      "type": "VEC2"
    },
    {
      "bufferView": 0,
      "byteOffset": 978900,
      "componentType": 5125,
      "count": 114942,
      "type": "SCALAR"
    },
    {
      "bufferView": 2,
      "byteOffset": 4713000,
      "componentType": 5126,
      "count": 42264,
      "max": [
        0.0,
        7.127871036529541,
        277.17889404296875
      ],
      "min": [
        -418.42730712890625,
        -415.2681884765625,
        -122.33023834228516
      ],
      "type": "VEC3"
    },
    {
      "bufferView": 2,
      "byteOffset": 5220168,
      "componentType": 5126,
      "count": 42264,
      "max": [
        6.939835657249205e-06,
        0.27405837178230286,
        0.9617175459861755
      ],
      "min": [
        -6.745209248038009e-06,
        -0.2740563750267029,
        -0.9617169499397278
      ],
      "type": "VEC3"
    },
    {
      "bufferView": 1,
      "byteOffset": 1571000,
      "componentType": 5126,
      "count": 42264,
      "max": [
        0.25976601243019104,
        0.5
      ],
      "min": [
        0.25195300579071045,
        0.5
      ],
      "type": "VEC2"
    },
    {
      "bufferView": 0,
      "byteOffset": 1438668,
      "componentType": 5125,
      "count": 67305,
      "type": "SCALAR"
    }
  ],
  "asset": {
    "extras": {
      "author": "HalfBreath (https://sketchfab.com/halfbreath)",
      "license": "CC-BY-4.0 (http://creativecommons.org/licenses/by/4.0/)",
      "source": "https://sketchfab.com/3d-models/hsi-46-the-space-mining-station-voxel-8c538c83458a4f6ca082deb4c1fa6a1e",
      "title": "HSI-46 - The space mining station (voxel)"
    },
    "generator": "Sketchfab-12.67.0",
    "version": "2.0"
  },
  "bufferViews": [
    {
      "buffer": 0,
      "byteLength": 1707888,
      "name": "floatBufferViews",
      "target": 34963
    },
    {
      "buffer": 0,
      "byteLength": 1909112,
      "byteOffset": 1707888,
      "byteStride": 8,
      "name": "floatBufferViews",
      "target": 34962
    },
    {
      "buffer": 0,
      "byteLength": 5727336,
      "byteOffset": 3617000,
      "byteStride": 12,
      "name": "floatBufferViews",
      "target": 34962
    }
  ],
  "buffers": [
    {
      "byteLength": 9344336,
      "uri": "scene.bin"
    }
  ],
  "images": [
    {
      "uri": "textures/palette_baseColor.png"
    },
    {
      "uri": "textures/palette_metallicRoughness.png"
    },
    {
      "uri": "textures/palette_emissive.png"
    }
  ],
  "materials": [
    {
      "doubleSided": true,
      "emissiveFactor": [
        1.0,
        1.0,
        1.0
      ],
      "emissiveTexture": {
        "index": 2
      },
      "name": "palette",
      "pbrMetallicRoughness": {
        "baseColorTexture": {
          "index": 0
        },
        "metallicRoughnessTexture": {
          "index": 1
        }
      }
    }
  ],
  "meshes": [
    {
      "name": "Object_0",
      "primitives": [
        {
          "attributes": {
            "NORMAL": 1,
            "POSITION": 0,
            "TEXCOORD_0": 2
          },
          "indices": 3,
          "material": 0,
          "mode": 4
        }
      ]
    },
    {
      "name": "Object_1",
      "primitives": [
        {
          "attributes": {
            "NORMAL": 5,
            "POSITION": 4,
            "TEXCOORD_0": 6
          },
          "indices": 7,
          "material": 0,
          "mode": 4
        }
      ]
    },
    {
      "name": "Object_2",
      "primitives": [
        {
          "attributes": {
            "NORMAL": 9,
            "POSITION": 8,
            "TEXCOORD_0": 10
          },
          "indices": 11,
          "material": 0,
          "mode": 4
        }
      ]
    },
    {
      "name": "Object_3",
      "primitives": [
        {
          "attributes": {
            "NORMAL": 13,
            "POSITION": 12,
            "TEXCOORD_0": 14
          },
          "indices": 15,
          "material": 0,
          "mode": 4
        }
      ]
    },
    {
      "name": "Object_4",
      "primitives": [
        {
          "attributes": {
            "NORMAL": 17,
            "POSITION": 16,
            "TEXCOORD_0": 18
          },
          "indices": 19,
          "material": 0,
          "mode": 4
        }
      ]
    }
  ],
  "nodes": [
    {
      "children": [
        1
      ],
      "matrix": [
        1.0,
        0.0,
        0.0,
        0.0,
        0.0,
        -1.0,
        -2.220446049250313e-16,
        0.0,
        0.0,
        2.220446049250313e-16,
        -1.0,
        0.0,
        0.0,
        -122.07358551025396,
        286.07000732421875,
        1.0
      ],
      "name": "Sketchfab_model"
    },
    {
      "children": [
        2,
        3,
        4,
        5,
        6
      ],
      "name": "space-hugo-0.obj.cleaner.materialmerger.gles"
    },
    {
      "mesh": 0,
      "name": "Object_2"
    },
    {
      "mesh": 1,
      "name": "Object_3"
    },
    {
      "mesh": 2,
      "name": "Object_4"
    },
    {
      "mesh": 3,
      "name": "Object_5"
    },
    {
      "mesh": 4,
      "name": "Object_6"
    }
  ],
  "samplers": [
    {
      "magFilter": 9729,
      "minFilter": 9987,
      "wrapS": 10497,
      "wrapT": 10497
    }
  ],
  "scene": 0,
  "scenes": [
    {
      "name": "Sketchfab_Scene",
      "nodes": [
        0
      ]
    }
  ],
  "textures": [
    {
      "sampler": 0,
      "source": 0
    },
    {
      "sampler": 0,
      "source": 1
    },
    {
      "sampler": 0,
      "source": 2
    }
  ]
}
